<?xml version="1.0" encoding="utf-8" ?><svg xmlns="http://www.w3.org/2000/svg" xmlns:xlink="http://www.w3.org/1999/xlink" width="1024" height="1024" viewBox="0 0 1024 1024"><path fill="#001E34" d="M905.962 139.955C959.292 178.818 973.511 252.432 946.475 311.031C960.314 295.014 965.513 287.681 976.455 269.529C982.285 283.597 988.332 311.752 989.133 326.768C991.499 371.119 981.025 407.723 951.916 441.604C963.667 435.064 980.428 425.069 989.152 414.726C988.572 421.381 988.481 427.869 987.753 434.683C983.19 477.386 968.305 504.026 938.946 534.25C947.639 532.85 958.164 531.105 966.635 529.035C963.298 539.89 957.336 550.255 951.149 559.739C932.547 588.258 906.767 608.884 875.625 622.259C871.104 624.275 866.465 625.909 861.818 627.612C872.645 631.451 882.845 635.858 894.02 638.709C887.172 645.741 878.768 652.242 870.987 658.018C847.226 675.654 823.042 685.551 793.113 686.591C786.527 686.82 776.309 687.038 769.717 685.97C775.061 694.033 786.186 705.421 794.738 710.219C765.608 736.115 728.228 741.623 694.222 721.625C696.451 728.408 699.296 737.091 703.154 743.099L702.99 743.678C700.038 745.539 692.945 745.187 689.418 745.229C673.892 745.412 659.766 740.861 646.917 732.218C647.491 743.408 647.956 755.892 649.165 766.954C646.244 766.34 643.201 765.892 640.258 765.297C613.68 759.928 587.955 742.651 582.837 714.578C565.232 737.174 536.378 759.783 511.537 773.764C484.696 759.395 461.472 738.337 441.505 715.614C439.589 722.933 437.512 728.511 433.082 734.813C423.647 748.235 409.27 758.271 393.608 763.011C388.02 764.702 381.133 765.817 375.355 766.866C376.439 755.712 376.87 743.582 377.186 732.363C357.871 745.337 342.083 746.516 320.124 743.881C324.428 737.579 327.654 728.923 329.676 721.599C319.753 727.777 308.599 731.713 296.996 733.132C270.493 736.44 249.312 726.345 229.113 710.541C239.229 701.91 245.539 697.176 253.552 686.164C203.619 690.062 164.848 673.868 130.176 638.427C141.461 635.464 151.179 631.596 162.047 627.487C157.639 626.095 153.293 624.511 149.023 622.741C116.811 609.467 89.7993 586.488 70.9366 557.1C65.4111 548.491 60.6461 537.667 56.7295 528.202C64.7179 531.008 77.4941 532.743 85.9707 534.037C50.6239 501.055 34.7812 462.977 35.0205 414.73C45.3097 425.731 59.1661 434.204 72.129 441.543C62.6253 431.228 54.6976 419.565 48.6027 406.933C27.7312 362.855 31.3763 313.656 47.4366 268.813C54.2857 282.595 66.9631 300.117 77.4396 311.373C51.3815 252.047 63.038 179.577 117.556 140.481C118.001 140.96 117.901 140.686 117.899 141.341C117.842 156.422 119.154 171.565 122.761 186.321C137.294 245.773 179.457 289.152 224.642 327.688C236.733 338 253.879 346.723 261.019 360.133C268.337 373.876 265.067 391.093 266.584 406.057C268.199 421.997 273.257 439.619 280.738 453.657C280.349 450.586 280.285 448.291 280.251 445.216L280.099 406.69C280.086 400.314 279.679 385.399 281.006 379.829C282.436 373.94 285.445 368.552 289.708 364.245C299.233 354.663 308.947 354.694 321.58 354.817C329.126 354.891 336.876 354.885 344.43 354.842L431.644 354.796L702.09 354.742C715.175 354.813 724.582 354.225 734.443 364.279C745.781 375.839 743.701 390.589 743.812 405.481L743.706 452.915C750.339 440.274 754.793 426.604 756.879 412.482C757.56 407.65 758.442 399.54 758.441 394.983C758.435 381.63 757.327 366.485 766.159 355.108C773.565 345.567 787.984 337.368 798.005 328.867C814.661 314.737 831.622 299.939 846.288 283.686C882.215 243.868 908.606 194.917 905.962 139.955ZM319.475 445.797C321.216 439.747 318.759 420.033 320.919 417.056L325.756 417.642C326.705 419.538 325.365 429.815 327.006 434.282C326.637 407.347 327.556 408.007 354.398 408.037L379.944 408.057C412.086 408.053 447.394 408.791 479.292 407.907C481.733 407.079 483.141 407.723 485.189 406.404C486.049 404.754 486.163 404.755 486.282 402.831C484.129 399.567 478.82 403.268 474.401 400.617L377.012 400.546L347.953 400.545C337.374 400.543 325.427 398.236 319.524 408.689C319.301 419.862 319.005 434.776 319.475 445.797ZM69.4852 469.367C73.3652 473.555 81.1813 481.725 85.488 484.979C110.868 504.152 142.5 516.129 174.396 517.007C185.706 517.318 197.132 517.234 208.16 515.827C193.829 510.052 174.624 498.272 166.406 484.838C161.276 483.566 147.264 481.832 141.042 480.824C124.617 478.305 108.356 474.817 92.3426 470.379C85.6029 468.482 79.0186 466.071 72.6473 463.168C70.3872 462.123 63.1493 457.778 61.6363 457.77L61.8234 458.839C64.1493 460.627 67.0754 466.28 69.4852 469.367ZM858.972 484.356C855.154 493.627 838.046 504.925 829.682 509.706C825.959 511.834 821.263 513.579 817.354 515.675L816.881 515.933C865.743 523.016 922.63 508.476 954.54 468.509C956.266 466.347 960.858 460.436 960.52 457.753C931.588 475.276 891.85 479.628 858.972 484.356Z"/><defs><linearGradient id="gradient_0" gradientUnits="userSpaceOnUse" x1="521.375" y1="657.33258" x2="503.13586" y2="365.82315"><stop offset="0" stop-color="#0F2C46"/><stop offset="1" stop-color="#48576D"/></linearGradient></defs><path fill="url(#gradient_0)" d="M297.566 410.281C297.464 402.384 297.085 394.066 297.671 386.285C298.425 376.29 307.075 370.401 316.476 370.161C326.286 369.91 336.121 370.015 345.908 370.011L400.715 370.002L566.843 370.018L663.612 370.027L692.015 369.999C697.878 369.997 705.495 369.789 711.166 370.643C720.953 371.655 726.419 379.556 726.724 388.816C727.194 403.051 726.959 417.52 726.953 431.761L726.89 516.872L726.852 582.455C726.876 595.773 727.272 609.014 726.169 622.233C725.013 636.084 715.995 646.38 701.668 646.982C691.526 647.408 681.155 647.191 671.002 647.159L620.144 647.088L453.409 647.17L358.245 647.137L333.12 647.224C321.07 647.299 309.936 649.1 302.522 637.17C297.487 629.067 297.44 621.796 297.44 612.559C297.44 600.913 297.522 589.231 297.534 577.572L297.534 492.164L297.474 436.925C297.451 431.378 296.989 414.701 297.566 410.281ZM319.475 445.797C321.216 439.747 318.759 420.033 320.919 417.056L325.756 417.642C326.705 419.538 325.365 429.815 327.006 434.282C326.637 407.347 327.556 408.007 354.398 408.037L379.944 408.057C412.086 408.053 447.394 408.791 479.292 407.907C481.733 407.079 483.141 407.723 485.189 406.404C486.049 404.754 486.163 404.755 486.282 402.831C484.129 399.567 478.82 403.268 474.401 400.617L377.012 400.546L347.953 400.545C337.374 400.543 325.427 398.236 319.524 408.689C319.301 419.862 319.005 434.776 319.475 445.797Z"/><path fill="#58677B" d="M297.566 410.281C297.464 402.384 297.085 394.066 297.671 386.285C298.425 376.29 307.075 370.401 316.476 370.161C326.286 369.91 336.121 370.015 345.908 370.011L400.715 370.002L566.843 370.018L663.612 370.027L692.015 369.999C697.878 369.997 705.495 369.789 711.166 370.643C708.193 370.967 707.115 370.56 704.668 372.393C703.407 375.794 705.894 373.117 704.248 375.755C701.316 376.498 689.211 375.953 685.186 375.952L637.894 375.995L414.533 376.049L358.551 376.035C352.099 376.028 345.636 375.946 339.151 376.027C327.662 376.169 312.384 375.294 305.922 387.031C303.664 391.131 302.626 395.898 301.465 400.375C299.239 400.525 299.497 400.189 298.359 401.44C297.577 405.011 298.364 407.302 297.566 410.281Z"/><path fill="#001E34" d="M323.173 386.169C342.195 385.424 365.093 386.026 384.35 386.033L489.03 385.983C500.796 386.013 504.296 386.016 512.757 394.513C517.928 388.1 523.178 386.225 531.175 386.066C540.71 385.876 550.319 385.997 559.853 386.008L613.238 386.056L668.253 386.046C678.151 386.029 688.089 385.878 697.937 386.05C705.637 386.185 712.592 388.524 716.79 395.344C718.852 398.693 719.484 401.232 719.612 405.076C719.987 416.377 719.876 427.711 719.89 439.017L719.961 499.165L720.106 570.767C720.117 584.865 720.159 598.903 719.818 612.998C719.555 623.907 717.441 630.767 706.627 635.418C698.808 638.629 678.745 637.144 669.409 637.138L589.788 637.178L417.556 637.147C397.582 637.227 377.607 637.204 357.633 637.076C347.439 637.078 337.337 637.644 327.112 637.179C321.171 636.909 318.511 636.648 313.361 633.158C308.884 630.124 305.627 624.104 305.214 618.736C304.291 606.771 304.513 593.965 304.473 581.936L304.478 511.328L304.755 442.387C304.78 429.781 304.551 417.095 305.131 404.514C305.63 393.685 312.787 387.506 323.173 386.169ZM319.475 445.797C321.216 439.747 318.759 420.033 320.919 417.056L325.756 417.642C326.705 419.538 325.365 429.815 327.006 434.282C326.637 407.347 327.556 408.007 354.398 408.037L379.944 408.057C412.086 408.053 447.394 408.791 479.292 407.907C481.733 407.079 483.141 407.723 485.189 406.404C486.049 404.754 486.163 404.755 486.282 402.831C484.129 399.567 478.82 403.268 474.401 400.617L377.012 400.546L347.953 400.545C337.374 400.543 325.427 398.236 319.524 408.689C319.301 419.862 319.005 434.776 319.475 445.797Z"/><defs><linearGradient id="gradient_1" gradientUnits="userSpaceOnUse" x1="615.65814" y1="615.28448" x2="608.51196" y2="406.19263"><stop offset="0" stop-color="#00193B"/><stop offset="1" stop-color="#7D2E52"/></linearGradient></defs><path fill="url(#gradient_1)" d="M520.047 408.661C522.868 403.535 525.876 400.917 531.928 400.785C542.861 400.546 553.808 400.658 564.747 400.665L625.361 400.685L671.371 400.641C678.711 400.635 688.772 400.28 695.956 401.287C699.516 401.786 702.817 405.645 704.563 408.843C705.397 412.86 705.095 431.595 705.053 437.022C704.908 456.09 705.186 475.402 704.939 494.447L697.511 498.366C688.452 503.579 685.938 506.269 687.746 516.786C694.754 526.258 700.354 525.581 704.869 530.393C706.315 555.4 704.162 582.549 704.97 607.729C705.264 616.904 699.441 621.889 690.625 621.744C678.902 621.925 667.258 621.825 655.574 621.809L591.378 621.771L553.458 621.827C544.673 621.857 530.016 623.738 523.381 618.259C520.098 615.548 520.17 611.779 519.961 607.809C519.106 582.525 520.964 556.089 519.871 530.909C522.614 525.979 533.571 525.498 537.084 514.444C537.385 505.837 534.022 503.252 527.349 498.966C524.926 497.604 522.493 496.262 520.049 494.938C519.982 476.383 519.162 451.469 520.052 433.636C519.933 425.311 519.931 416.985 520.047 408.661Z"/><defs><linearGradient id="gradient_2" gradientUnits="userSpaceOnUse" x1="608.8241" y1="522.71838" x2="616.07562" y2="625.9726"><stop offset="0" stop-color="#7B2B47"/><stop offset="1" stop-color="#42264E"/></linearGradient></defs><path fill="url(#gradient_2)" d="M527.61 527.249L527.502 578.04C527.503 586.845 527.17 596.521 528.078 605.208C529.26 616.512 546.789 613.952 554.866 613.953L586.456 613.943C617.769 613.923 649.064 613.933 680.401 613.929C696.447 613.927 697.5 609.13 697.461 593.873C697.449 588.98 697.453 583.684 697.457 578.752L697.547 527.647C699.715 528.693 702.634 530.453 704.869 530.393C706.315 555.4 704.162 582.549 704.97 607.729C705.264 616.904 699.441 621.889 690.625 621.744C678.902 621.925 667.258 621.825 655.574 621.809L591.378 621.771L553.458 621.827C544.673 621.857 530.016 623.738 523.381 618.259C520.098 615.548 520.17 611.779 519.961 607.809C519.106 582.525 520.964 556.089 519.871 530.909C522.255 530.466 525.41 528.479 527.61 527.249Z"/><path fill="#F66C5C" d="M520.047 408.661C522.868 403.535 525.876 400.917 531.928 400.785C542.861 400.546 553.808 400.658 564.747 400.665L625.361 400.685L671.371 400.641C678.711 400.635 688.772 400.28 695.956 401.287C699.516 401.786 702.817 405.645 704.563 408.843C704.46 412.959 704.538 417.103 704.09 421.18C704.077 418.948 704.335 413.461 703.599 411.822C695.313 411.638 699.005 419.762 697.522 424.583C697.444 416.949 696.812 409.713 687.278 408.43C681.166 407.607 674.51 407.953 668.313 407.951L638.994 407.95L543.051 408.019C524.671 408.21 527.551 419.085 527.455 433.25C526.633 429.991 527.013 422.959 527 419.249C524.707 420.218 522.93 421.012 520.525 421.717C520.532 425.012 520.749 430.657 520.052 433.636C519.933 425.311 519.931 416.985 520.047 408.661Z"/><path fill="#C6474A" d="M704.563 408.843C705.397 412.86 705.095 431.595 705.053 437.022C704.908 456.09 705.186 475.402 704.939 494.447L697.511 498.366C697.361 497.935 697.528 478.406 697.52 476.456L697.384 442.379C697.366 437.578 697.082 429.153 697.522 424.583C699.005 419.762 695.313 411.638 703.599 411.822C704.335 413.461 704.077 418.948 704.09 421.18C704.538 417.103 704.46 412.959 704.563 408.843Z"/><path fill="#C6474A" d="M520.525 421.717C522.93 421.012 524.707 420.218 527 419.249C527.013 422.959 526.633 429.991 527.455 433.25C528.117 441.88 527.594 457.717 527.555 466.776C527.517 475.493 527.979 490.595 527.349 498.966C524.926 497.604 522.493 496.262 520.049 494.938C519.982 476.383 519.162 451.469 520.052 433.636C520.749 430.657 520.532 425.012 520.525 421.717Z"/><path fill="#F66C5C" d="M537.084 514.444L537.651 514.172C536.051 521.152 533.678 523.021 527.61 527.249C525.41 528.479 522.255 530.466 519.871 530.909C522.614 525.979 533.571 525.498 537.084 514.444Z"/><path fill="#C6474A" d="M687.746 516.786C694.754 526.258 700.354 525.581 704.869 530.393C702.634 530.453 699.715 528.693 697.547 527.647C694.385 525.419 687.9 520.848 687.746 516.786Z"/><path fill="#F2F1EF" d="M606.075 429.454L637.007 429.487L636.981 533.724L637.005 567.146C637.006 570.051 637.535 584.487 636.164 586.157C633.864 586.922 631.241 586.712 628.762 586.711L628.389 587.112L629.095 588.696C628.069 589.459 627.23 589.846 626.107 590.422L625.821 591.352C627.251 591.435 627.143 591.38 628.517 591.715C623.654 592.14 603.321 592.864 599.911 590.872C598.949 588.16 602.701 587.467 603.049 584.086C603.908 584.379 603.529 584.28 604.171 585.549C603.507 573.093 604.006 556.66 604.013 543.857L603.973 466.947C596.232 474.075 581.834 484.372 573.005 490.982L572.931 458.744C582.726 450.053 596.261 437.428 606.075 429.454Z"/><path fill="#001E34" d="M636.164 586.157C633.864 586.922 631.241 586.712 628.762 586.711L628.389 587.112L629.095 588.696C628.069 589.459 627.23 589.846 626.107 590.422L625.821 591.352C627.251 591.435 627.143 591.38 628.517 591.715C623.654 592.14 603.321 592.864 599.911 590.872C598.949 588.16 602.701 587.467 603.049 584.086C603.908 584.379 603.529 584.28 604.171 585.549C609.068 586.874 629.173 584.984 636.164 586.157Z"/><defs><linearGradient id="gradient_3" gradientUnits="userSpaceOnUse" x1="421.49664" y1="618.84033" x2="401.48206" y2="402.9299"><stop offset="0" stop-color="#001C33"/><stop offset="1" stop-color="#004669"/></linearGradient></defs><path fill="url(#gradient_3)" d="M474.401 400.617C482.05 400.481 494.996 398.769 500.832 404.619C502.228 405.925 504.125 408.562 504.228 410.559C504.649 418.699 504.803 427.283 504.598 435.453C504.112 454.893 505.374 475.131 504.325 494.469C501.289 496.563 499.755 497.432 496.457 499.108C487.358 505.328 487.588 505.707 487.562 516.208C494.226 526.172 500.815 525.982 504.496 530.485C503.655 557.059 505.625 584.494 504.085 611.084C503.773 616.475 499.169 620.744 494.045 621.469C487.02 621.879 479.605 621.669 472.507 621.668L428.607 621.67L364.307 621.679C353.198 621.684 342.038 621.895 330.95 621.569C324.446 621.378 319.656 615.756 319.406 609.4C318.387 583.519 320.43 556.693 319.314 530.896C320.532 528.628 330.447 523.273 334.816 518.397C338.223 508.052 335.698 504.772 326.79 498.906C324.341 497.608 321.921 496.256 319.532 494.85C319.426 481.036 318.609 458.805 319.475 445.797C321.216 439.747 318.759 420.033 320.919 417.056L325.756 417.642C326.705 419.538 325.365 429.815 327.006 434.282C326.637 407.347 327.556 408.007 354.398 408.037L379.944 408.057C412.086 408.053 447.394 408.791 479.292 407.907C481.733 407.079 483.141 407.723 485.189 406.404C486.049 404.754 486.163 404.755 486.282 402.831C484.129 399.567 478.82 403.268 474.401 400.617Z"/><path fill="#004785" d="M326.84 527.159L326.94 578.599C326.94 583.359 327.066 588.269 326.938 593.137C326.714 601.598 326.773 612.72 337.904 613.731C344.448 614.326 352.037 613.97 358.748 613.957L399.533 613.898L455.936 613.924C465.566 613.928 475.254 614.076 484.863 613.775C491.725 613.56 496.069 609.331 496.321 602.492C496.643 593.745 496.525 585.104 496.527 576.396L496.493 527.154C498.856 528.533 501.021 529.954 503.601 530.836L504.496 530.485C503.655 557.059 505.625 584.494 504.085 611.084C503.773 616.475 499.169 620.744 494.045 621.469C487.02 621.879 479.605 621.669 472.507 621.668L428.607 621.67L364.307 621.679C353.198 621.684 342.038 621.895 330.95 621.569C324.446 621.378 319.656 615.756 319.406 609.4C318.387 583.519 320.43 556.693 319.314 530.896C321.727 530.201 324.578 528.419 326.84 527.159Z"/><defs><linearGradient id="gradient_4" gradientUnits="userSpaceOnUse" x1="518.32867" y1="459.43509" x2="470.13803" y2="437.75"><stop offset="0" stop-color="#004E88"/><stop offset="1" stop-color="#0094C1"/></linearGradient></defs><path fill="url(#gradient_4)" d="M474.401 400.617C482.05 400.481 494.996 398.769 500.832 404.619C502.228 405.925 504.125 408.562 504.228 410.559C504.649 418.699 504.803 427.283 504.598 435.453C504.112 454.893 505.374 475.131 504.325 494.469C501.289 496.563 499.755 497.432 496.457 499.108C497.052 483.375 496.379 466.387 496.648 450.507C496.471 440.085 497.007 429.612 496.315 419.211C495.614 408.664 487.561 408.183 479.292 407.907C481.733 407.079 483.141 407.723 485.189 406.404C486.049 404.754 486.163 404.755 486.282 402.831C484.129 399.567 478.82 403.268 474.401 400.617Z"/><path fill="#017ABA" d="M319.475 445.797C321.216 439.747 318.759 420.033 320.919 417.056L325.756 417.642C326.705 419.538 325.365 429.815 327.006 434.282C327.399 452.544 326.707 471.007 326.86 489.284C326.885 492.39 326.918 495.813 326.79 498.906C324.341 497.608 321.921 496.256 319.532 494.85C319.426 481.036 318.609 458.805 319.475 445.797Z"/><path fill="#017ABA" d="M487.562 516.208C494.226 526.172 500.815 525.982 504.496 530.485L503.601 530.836C501.021 529.954 498.856 528.533 496.493 527.154C493.447 524.904 486.931 520.338 487.562 516.208Z"/><path fill="#017ABA" d="M334.816 518.397L335.119 519.042C333.343 522.493 329.889 524.767 326.84 527.159C324.578 528.419 321.727 530.201 319.314 530.896C320.532 528.628 330.447 523.273 334.816 518.397Z"/><defs><linearGradient id="gradient_5" gradientUnits="userSpaceOnUse" x1="447.31067" y1="507.7677" x2="385.84488" y2="434.73892"><stop offset="0" stop-color="#FFC62C"/><stop offset="1" stop-color="#FFE646"/></linearGradient></defs><path fill="url(#gradient_5)" d="M364.037 479.938C363.874 465.589 363.905 454.61 374.554 443.7C384.426 433.585 398.685 429.419 412.44 429.136C436.156 428.648 461.982 442.259 461.763 468.72C461.649 482.504 456.043 494.868 448.279 506.036C447.423 507.257 444.514 511.353 443.419 512.08C442.977 512.396 441.791 513.241 441.241 513.226C434.45 513.039 409.639 515.003 405.087 512.052C414.112 500.673 429.382 484.378 428.029 469.04C427.217 459.845 418.289 454.322 409.36 455.891C405.073 456.641 401.298 459.158 398.958 462.827C395.481 468.187 395.873 473.867 395.995 479.928L364.037 479.938Z"/><defs><linearGradient id="gradient_6" gradientUnits="userSpaceOnUse" x1="422.28745" y1="597.92853" x2="393.72101" y2="516.63934"><stop offset="0" stop-color="#FFA70E"/><stop offset="1" stop-color="#FFC420"/></linearGradient></defs><path fill="url(#gradient_6)" d="M405.087 512.052C409.639 515.003 434.45 513.039 441.241 513.226C441.791 513.241 442.977 512.396 443.419 512.08C440.947 515.693 435.111 522.391 432.211 525.8C422.838 536.613 413.358 547.332 403.772 557.956L462.205 558.011C462.051 567.21 462.141 576.669 462.118 585.89L364.067 585.837C363.962 577.412 364.054 568.805 364.055 560.365C377.637 544.075 391.727 528.939 405.087 512.052Z"/><defs><linearGradient id="gradient_7" gradientUnits="userSpaceOnUse" x1="402.13702" y1="395.56537" x2="403.63925" y2="413.69876"><stop offset="0" stop-color="#00B2DB" stop-opacity="0.98823529"/><stop offset="1" stop-color="#0099C7"/></linearGradient></defs><path fill="url(#gradient_7)" d="M319.524 408.689C325.427 398.236 337.374 400.543 347.953 400.545L377.012 400.546L474.401 400.617C478.82 403.268 484.129 399.567 486.282 402.831C486.163 404.755 486.049 404.754 485.189 406.404C483.141 407.723 481.733 407.079 479.292 407.907C447.394 408.791 412.086 408.053 379.944 408.057L354.398 408.037C327.556 408.007 326.637 407.347 327.006 434.282C325.365 429.815 326.705 419.538 325.756 417.642L320.919 417.056C318.759 420.033 321.216 439.747 319.475 445.797C319.005 434.776 319.301 419.862 319.524 408.689Z"/><path fill="#004785" d="M818.277 339.121C819.142 338.021 824.696 333.378 826.29 331.991C831.414 327.586 836.441 323.07 841.368 318.446C860.898 299.962 877.248 281.6 891.939 259.09C900.192 246.43 907.225 233.015 912.944 219.026C914.643 214.824 922.163 190.575 922.417 190.23L923.148 190.308L924.241 192.444C947.894 239.024 942.734 279.146 917.794 323.191C898.2 357.797 870.091 382.797 838.606 406.394C829.954 414.119 819.351 419.483 811.403 427.838C820.329 424.311 829.155 420.539 837.872 416.525C880.704 392.661 929.68 357.963 963.323 322.107L966.533 317.817C967.853 323.122 968.185 329.411 968.535 334.906C973.269 409.268 924.7 455.301 857.462 473.866C844.358 477.515 821.621 482.732 807.909 483.137C817.065 471.684 822.294 461.495 828.375 448.46C826.75 449.111 825.132 449.713 823.584 450.531C818.698 457.88 814.459 465.259 809.312 472.466C792.008 496.697 769.093 516.559 743.672 531.948C743.609 521.255 742.998 504.544 743.585 494.232C743.485 492.164 743.452 491.808 743.812 489.799C747.062 485.296 751.93 481.269 755.789 475.683C769.126 456.379 776.547 434.068 778.772 410.801C779.449 403.725 779.17 395.969 779.515 388.789C778.841 368.454 788.316 362.106 803.444 350.588C808.333 346.866 813.333 342.847 818.277 339.121Z"/><defs><linearGradient id="gradient_8" gradientUnits="userSpaceOnUse" x1="881.63293" y1="483.66644" x2="967.58667" y2="320.59988"><stop offset="0" stop-color="#0064A2"/><stop offset="1" stop-color="#0099C8"/></linearGradient></defs><path fill="url(#gradient_8)" d="M966.533 317.817C967.853 323.122 968.185 329.411 968.535 334.906C973.269 409.268 924.7 455.301 857.462 473.866C859.689 469.478 864.813 462.362 867.146 458.272C870.718 452.009 883.989 426.645 884.315 420.602C864.005 433.938 850.679 439.64 828.684 448.655C833.032 438.258 835.176 427.389 837.872 416.525C880.704 392.661 929.68 357.963 963.323 322.107L966.533 317.817Z"/><path fill="#00C0EA" d="M963.323 322.107C963.748 326.085 960.153 336.041 958.446 339.749C944.769 369.465 920.244 394.697 893.86 413.595C890.687 415.868 887.457 418.243 884.315 420.602C864.005 433.938 850.679 439.64 828.684 448.655C833.032 438.258 835.176 427.389 837.872 416.525C880.704 392.661 929.68 357.963 963.323 322.107Z"/><defs><linearGradient id="gradient_9" gradientUnits="userSpaceOnUse" x1="874.07428" y1="409.33481" x2="904.24255" y2="193.59732"><stop offset="0" stop-color="#0087BB"/><stop offset="1" stop-color="#00A0C7"/></linearGradient></defs><path fill="url(#gradient_9)" d="M924.241 192.444C947.894 239.024 942.734 279.146 917.794 323.191C898.2 357.797 870.091 382.797 838.606 406.394C839.682 394.981 840.558 367.347 836.848 357.056C853.505 340.134 879.34 308.378 890.771 287.685C891.457 287.25 893.597 284.022 894.045 283.136C895.676 279.919 896.44 280.098 895.613 276.92C908.486 257.03 920.365 236.311 923.497 212.297C924.381 205.521 923.861 199.204 924.241 192.444Z"/><path fill="#16D5EE" d="M818.277 339.121C819.142 338.021 824.696 333.378 826.29 331.991C831.414 327.586 836.441 323.07 841.368 318.446C860.898 299.962 877.248 281.6 891.939 259.09C900.192 246.43 907.225 233.015 912.944 219.026C914.643 214.824 922.163 190.575 922.417 190.23L923.148 190.308L924.241 192.444C923.861 199.204 924.381 205.521 923.497 212.297C920.365 236.311 908.486 257.03 895.613 276.92C896.44 280.098 895.676 279.919 894.045 283.136C893.597 284.022 891.457 287.25 890.771 287.685C879.34 308.378 853.505 340.134 836.848 357.056C829.4 364.392 821.741 371.613 814.084 378.772C808.362 384.121 804.498 389.335 803.897 397.526C803.083 408.609 802.498 419.654 800.393 430.627C799.033 427.646 791.493 422.941 788.84 421.129C786.565 419.575 787.015 419.494 786.558 416.713C780.341 441.324 772.729 462.578 753.951 480.656C751.948 482.584 746.485 489.686 743.812 489.799C747.062 485.296 751.93 481.269 755.789 475.683C769.126 456.379 776.547 434.068 778.772 410.801C779.449 403.725 779.17 395.969 779.515 388.789C778.841 368.454 788.316 362.106 803.444 350.588C808.333 346.866 813.333 342.847 818.277 339.121Z"/><defs><linearGradient id="gradient_10" gradientUnits="userSpaceOnUse" x1="859.29651" y1="382.53448" x2="824.58148" y2="337.48611"><stop offset="0" stop-color="#00ADE4"/><stop offset="1" stop-color="#00C6EB"/></linearGradient></defs><path fill="url(#gradient_10)" d="M887.198 288.435L888.125 289.168C889.447 288.458 888.97 288.754 889.958 287.444L890.771 287.685C879.34 308.378 853.505 340.134 836.848 357.056C829.4 364.392 821.741 371.613 814.084 378.772C808.362 384.121 804.498 389.335 803.897 397.526C803.083 408.609 802.498 419.654 800.393 430.627C799.033 427.646 791.493 422.941 788.84 421.129C786.565 419.575 787.015 419.494 786.558 416.713C786.227 415.328 791.891 380.061 793.338 378.215C800.684 368.837 821.519 353.659 830.752 346.031C836.639 341.22 842.317 336.16 847.772 330.865C856.361 322.651 864.569 314.288 872.582 305.513C877.059 300.609 882.595 292.742 887.198 288.435Z"/><path fill="#00C0EA" d="M887.198 288.435C889.786 285.351 893.208 280.294 895.613 276.92C896.44 280.098 895.676 279.919 894.045 283.136C893.597 284.022 891.457 287.25 890.771 287.685L889.958 287.444C888.97 288.754 889.447 288.458 888.125 289.168L887.198 288.435Z"/><defs><linearGradient id="gradient_11" gradientUnits="userSpaceOnUse" x1="734.3396" y1="497.46054" x2="800.75745" y2="430.24246"><stop offset="0" stop-color="#0053A2"/><stop offset="1" stop-color="#00AFE3"/></linearGradient></defs><path fill="url(#gradient_11)" d="M786.558 416.713C787.015 419.494 786.565 419.575 788.84 421.129C791.493 422.941 799.033 427.646 800.393 430.627C791.485 467.534 774.55 488.168 744.004 509.419C744.02 505.235 744.243 498.128 743.585 494.232C743.485 492.164 743.452 491.808 743.812 489.799C746.485 489.686 751.948 482.584 753.951 480.656C772.729 462.578 780.341 441.324 786.558 416.713Z"/><path fill="#004785" d="M184.86 406.078C118.167 358.423 57.7343 279.588 97.493 197.497C98.5723 195.268 100.136 191.326 101.889 189.815L102.564 190.171L102.865 191.85C119.455 255.157 157.782 299.014 207.457 340.135C218.559 349.326 232.635 358.012 241.002 369.546C246.205 377.055 244.952 391.515 245.079 400.666C245.191 405.725 245.55 410.777 246.156 415.801C248.29 432.933 253.505 449.538 261.55 464.814C265.03 471.268 268.075 475.935 272.801 481.497C274.772 483.817 278.723 487.814 280.284 489.927C281.481 494.327 280.038 524.63 279.898 530.619C271.504 526.533 260.209 518.133 252.953 512.201C230.17 493.578 215.581 474.948 200.8 449.683C198.475 448.684 197.962 448.533 195.468 448.105L194.976 447.843L194.862 446.998C190.454 438.381 187.402 425.528 185.442 416.089C194.632 419.174 203.707 424.578 214.29 428.05C207.41 422.618 189.749 411.297 184.86 406.078Z"/><defs><linearGradient id="gradient_12" gradientUnits="userSpaceOnUse" x1="130.08678" y1="400.58725" x2="141.22086" y2="198.32416"><stop offset="0" stop-color="#0089BC"/><stop offset="1" stop-color="#00A0C6"/></linearGradient></defs><path fill="url(#gradient_12)" d="M184.86 406.078C118.167 358.423 57.7343 279.588 97.493 197.497C98.5723 195.268 100.136 191.326 101.889 189.815L102.564 190.171L102.865 191.85C100.652 193.718 100.182 196.362 100.031 199.258C98.4945 228.595 113.984 254.017 128.577 277.502C136.089 297.506 171.526 341.74 187.618 357.195C184.299 369.787 184.235 393.113 184.86 406.078Z"/><defs><linearGradient id="gradient_13" gradientUnits="userSpaceOnUse" x1="152.2511" y1="389.07513" x2="228.55632" y2="292.66818"><stop offset="0" stop-color="#0EB9EC"/><stop offset="1" stop-color="#25EDF0"/></linearGradient></defs><path fill="url(#gradient_13)" d="M128.577 277.502C113.984 254.017 98.4945 228.595 100.031 199.258C100.182 196.362 100.652 193.718 102.865 191.85C119.455 255.157 157.782 299.014 207.457 340.135C218.559 349.326 232.635 358.012 241.002 369.546C246.205 377.055 244.952 391.515 245.079 400.666C245.191 405.725 245.55 410.777 246.156 415.801C248.29 432.933 253.505 449.538 261.55 464.814C265.03 471.268 268.075 475.935 272.801 481.497C274.772 483.817 278.723 487.814 280.284 489.927C277.692 489.438 272.393 483.425 270.234 481.199C269.381 479.664 267.975 478.655 266.791 477.368C258.64 468.498 249.123 453.847 245.245 442.704C242.215 437.475 240.704 430.895 238.534 425.232C238.481 425.095 236.78 416.352 236.712 415.797C235.274 416.691 225.468 427.581 225.048 430.006C224.206 434.858 228.14 440.439 227.752 445.09C224.548 436.115 224.306 431.791 222.655 423.245C220.794 413.608 221.52 392.01 216.045 385.035C209.13 376.226 196.027 365.01 187.618 357.195C171.526 341.74 136.089 297.506 128.577 277.502Z"/><path fill="#00C0EA" d="M128.577 277.502C134.022 281.758 141.909 294.012 146.52 299.793C151.665 306.245 157.471 312.439 163.265 318.318C169.988 325.14 176.872 332.199 184.135 338.438C192.268 345.424 226.598 371.384 229.846 377.003C235.007 385.932 234.402 397.578 236.301 407.482C237.841 415.514 239.783 423.818 242.064 431.666C243.065 435.109 245.046 438.763 245.654 442.213L245.245 442.704C242.215 437.475 240.704 430.895 238.534 425.232C238.481 425.095 236.78 416.352 236.712 415.797C235.274 416.691 225.468 427.581 225.048 430.006C224.206 434.858 228.14 440.439 227.752 445.09C224.548 436.115 224.306 431.791 222.655 423.245C220.794 413.608 221.52 392.01 216.045 385.035C209.13 376.226 196.027 365.01 187.618 357.195C171.526 341.74 136.089 297.506 128.577 277.502Z"/><path fill="#017ABA" d="M227.752 445.09C228.14 440.439 224.206 434.858 225.048 430.006C225.468 427.581 235.274 416.691 236.712 415.797C236.78 416.352 238.481 425.095 238.534 425.232C240.704 430.895 242.215 437.475 245.245 442.704C249.123 453.847 258.64 468.498 266.791 477.368C267.975 478.655 269.381 479.664 270.234 481.199C269.957 481.647 270.102 481.34 270.006 482.192C273.046 485.44 276.129 488.647 279.255 491.813L279.255 508.01L278.741 507.685C256.752 493.608 233.642 471.516 227.752 445.09Z"/><defs><linearGradient id="gradient_14" gradientUnits="userSpaceOnUse" x1="193.58707" y1="385.73044" x2="59.921928" y2="383.27887"><stop offset="0" stop-color="#00B2E4"/><stop offset="1" stop-color="#00D7F6"/></linearGradient></defs><path fill="url(#gradient_14)" d="M57.6089 318.243C58.8531 319.557 59.2534 320.059 60.3257 321.528C87.4937 350.702 120.127 375 153.371 396.882C163.829 403.765 175.646 409.619 185.442 416.089C187.402 425.528 190.454 438.381 194.862 446.998L194.976 447.843L195.468 448.105C199.633 456.287 210.241 475.818 215.554 483.18C207.185 482.676 173.9 476.569 166.063 473.311C160.479 472.003 154.601 469.809 149.207 467.822C81.8377 443.004 46.0683 391.242 57.6089 318.243Z"/><defs><linearGradient id="gradient_15" gradientUnits="userSpaceOnUse" x1="147.34123" y1="482.02911" x2="50.810776" y2="324.71832"><stop offset="0" stop-color="#0068A7"/><stop offset="1" stop-color="#009AC8"/></linearGradient></defs><path fill="url(#gradient_15)" d="M57.6089 318.243C58.8531 319.557 59.2534 320.059 60.3257 321.528C60.2382 340.364 83.659 370.507 96.4488 384.008C103.889 391.861 112.678 400.026 121.219 406.716C127.101 411.323 133.762 415.471 139.653 420.042C140.39 422.833 142.019 426.083 143.203 428.754C146.98 437.28 150.851 445.718 155.412 453.858C158.899 460.082 162.517 466.243 166.262 472.32C166.196 472.65 166.129 472.981 166.063 473.311C160.479 472.003 154.601 469.809 149.207 467.822C81.8377 443.004 46.0683 391.242 57.6089 318.243Z"/><defs><linearGradient id="gradient_16" gradientUnits="userSpaceOnUse" x1="191.42458" y1="490.38486" x2="161.90945" y2="412.67819"><stop offset="0" stop-color="#004482"/><stop offset="1" stop-color="#005B95"/></linearGradient></defs><path fill="url(#gradient_16)" d="M139.653 420.042C149.087 425.884 184.607 446.236 194.862 446.998L194.976 447.843L195.468 448.105C199.633 456.287 210.241 475.818 215.554 483.18C207.185 482.676 173.9 476.569 166.063 473.311C166.129 472.981 166.196 472.65 166.262 472.32C162.517 466.243 158.899 460.082 155.412 453.858C150.851 445.718 146.98 437.28 143.203 428.754C142.019 426.083 140.39 422.833 139.653 420.042Z"/><path fill="#062D6E" d="M782.485 550.497C789.888 550.443 800.993 552.714 808.714 553.888C819.019 555.379 829.346 556.71 839.691 557.879C866.809 560.999 898.961 562.62 925.496 556.291L925.964 556.144C927.197 555.767 927.722 555.462 928.947 555.819C929.106 558.989 921.909 566.699 919.574 569.292C895.411 595.93 861.559 611.744 825.623 613.179C793.286 614.718 784.679 606.204 762.455 583.497C767.057 582.519 776.841 580.002 780.964 579.536C779.474 578.518 773.838 575.889 771.973 574.981C767.485 572.795 763.823 570.75 759.529 568.223C764.405 563.558 776.92 553.726 782.485 550.497Z"/><defs><linearGradient id="gradient_17" gradientUnits="userSpaceOnUse" x1="782.2782" y1="581.11182" x2="923.16547" y2="562.55121"><stop offset="0" stop-color="#0051A9"/><stop offset="1" stop-color="#0093D9"/></linearGradient></defs><path fill="url(#gradient_17)" d="M925.496 556.291C921.784 560.233 915.838 563.824 911.291 566.874C871.921 593.283 824.885 595.04 781.416 579.223C782.969 577.977 785.439 577.819 787.405 577.38C802.212 574.074 817.927 569.002 830.93 561.115C834.636 558.867 835.131 557.771 839.691 557.879C866.809 560.999 898.961 562.62 925.496 556.291Z"/><defs><linearGradient id="gradient_18" gradientUnits="userSpaceOnUse" x1="234.44225" y1="591.96545" x2="109.05544" y2="551.14966"><stop offset="0" stop-color="#0C3B9D"/><stop offset="1" stop-color="#008CD7"/></linearGradient></defs><path fill="url(#gradient_18)" d="M188.637 557.321C198.934 556.078 209.209 554.66 219.459 553.069C225.037 552.208 234.613 550.407 239.87 550.208C247.521 553.775 256.376 562.045 262.869 567.736C255.637 572.215 249.252 575.415 241.606 579.148C243.626 580.53 257.785 581.804 261.886 582.68C256.635 591.166 235.716 608.431 226.238 610.844C182.948 621.869 123.524 597.806 98.9109 561.352L94.6769 555.625C96.4004 555.972 98.1222 556.327 99.8421 556.69C104.012 557.426 108.428 558.128 112.553 558.992C115.768 559.014 119.635 559.522 122.884 559.797C144.883 561.66 166.756 560.169 188.637 557.321Z"/><defs><linearGradient id="gradient_19" gradientUnits="userSpaceOnUse" x1="254.23485" y1="605.53674" x2="97.361115" y2="565.40662"><stop offset="0" stop-color="#0A1D53"/><stop offset="1" stop-color="#0A398A"/></linearGradient></defs><path fill="url(#gradient_19)" d="M94.6769 555.625C96.4004 555.972 98.1222 556.327 99.8421 556.69C104.012 557.426 108.428 558.128 112.553 558.992C110.467 559.1 108.278 558.869 106.802 559.984C106.732 561.619 107.664 562.859 108.474 564.359C133.383 583.908 173.259 592.569 204.262 588.336C214.005 587.005 232.768 583.491 241.213 579.28L241.606 579.148C243.626 580.53 257.785 581.804 261.886 582.68C256.635 591.166 235.716 608.431 226.238 610.844C182.948 621.869 123.524 597.806 98.9109 561.352L94.6769 555.625Z"/><path fill="#017ABA" d="M99.8421 556.69C104.012 557.426 108.428 558.128 112.553 558.992C110.467 559.1 108.278 558.869 106.802 559.984C106.732 561.619 107.664 562.859 108.474 564.359C105.017 562.43 102.376 559.114 98.5471 557.54L99.8421 556.69Z"/><path fill="#004785" d="M94.6769 555.625C96.4004 555.972 98.1222 556.327 99.8421 556.69L98.5471 557.54C98.7404 558.502 98.9841 559.424 99.2965 560.354L98.9109 561.352L94.6769 555.625Z"/><path fill="#062D6E" d="M188.637 557.321C198.934 556.078 209.209 554.66 219.459 553.069C225.037 552.208 234.613 550.407 239.87 550.208C247.521 553.775 256.376 562.045 262.869 567.736C255.637 572.215 249.252 575.415 241.606 579.148L241.213 579.28C239.811 578.592 232.153 576.522 230.188 575.983C217.1 572.389 198.419 567.186 188.637 557.321Z"/><path fill="#072345" d="M443.109 673.526L448.254 674.022C466.408 674.499 484.775 673.593 502.716 673.926C519.76 674.322 536.81 674.442 553.859 674.287C559.031 674.286 573.741 674.591 578.302 673.752C578.797 674.972 576.876 679.16 576.175 680.718C563.633 708.616 539.266 730.903 513.547 746.676C512.575 747.272 511.27 747.318 510.251 746.892C479.47 727.1 459.601 706.621 443.109 673.526Z"/><defs><linearGradient id="gradient_20" gradientUnits="userSpaceOnUse" x1="475.453" y1="673.39569" x2="478.047" y2="746.10431"><stop offset="0" stop-color="#042D49"/><stop offset="1" stop-color="#175D87"/></linearGradient></defs><path fill="url(#gradient_20)" d="M443.109 673.526L448.254 674.022C455.582 688.19 477.804 712.692 490.18 723.563C496.484 729.101 504.255 734.88 509.718 741.03L510.251 746.892C479.47 727.1 459.601 706.621 443.109 673.526Z"/><defs><linearGradient id="gradient_21" gradientUnits="userSpaceOnUse" x1="853.55151" y1="554.43909" x2="878.60791" y2="444.5546"><stop offset="0" stop-color="#00316A"/><stop offset="1" stop-color="#006EB7"/></linearGradient></defs><path fill="url(#gradient_21)" d="M960.52 457.753L961.827 456.797L962.262 457.212C961.807 461.802 960.14 465.923 958.752 470.239C943.243 518.446 896.31 546.541 847.043 547.081C836.465 547.197 826.919 546.735 816.275 545.627C806.473 544.688 796.787 542.791 787.355 539.962C781.98 538.317 776.063 535.948 770.757 534.514C778.964 529.126 784.924 523.159 791.757 516.69C797.896 510.878 812.633 491.918 819.587 489.774C828.771 486.942 848.619 485.448 858.972 484.356C855.154 493.627 838.046 504.925 829.682 509.706C825.959 511.834 821.263 513.579 817.354 515.675L816.881 515.933C865.743 523.016 922.63 508.476 954.54 468.509C956.266 466.347 960.858 460.436 960.52 457.753Z"/><path fill="#062D6E" d="M844.502 533.703C846.15 533.832 846.659 533.128 848.266 533.565C849.721 533.962 851.562 534.052 853.082 534.191L853.003 534.631C849.139 536.795 842.925 538.368 838.611 539.391C837.507 539.677 836.398 539.947 835.286 540.202C833.521 540.6 832.566 540.867 830.982 539.858C831.079 536.443 841.645 533.733 844.502 533.703Z"/><defs><linearGradient id="gradient_22" gradientUnits="userSpaceOnUse" x1="169.98981" y1="553.87933" x2="141.89252" y2="446.08737"><stop offset="0" stop-color="#00306A"/><stop offset="1" stop-color="#0072BA"/></linearGradient></defs><path fill="url(#gradient_22)" d="M61.8234 458.839C64.1493 460.627 67.0754 466.28 69.4852 469.367C73.3652 473.555 81.1813 481.725 85.488 484.979C110.868 504.152 142.5 516.129 174.396 517.007C185.706 517.318 197.132 517.234 208.16 515.827C193.829 510.052 174.624 498.272 166.406 484.838C176.047 485.614 197.093 487.563 205.765 489.733C210.137 490.827 227.892 511.912 232.702 516.741C237.285 521.304 242.113 525.614 247.163 529.654C249.21 531.055 251.185 532.402 253.175 533.893C233.493 541.122 218.852 545.148 197.462 546.73C193.792 547.317 188.173 547.293 184.346 547.296C129.686 547.339 83.6671 521.518 64.6235 468.923C63.5245 465.468 62.713 462.359 61.8234 458.839Z"/><path fill="#062D6E" d="M197.462 546.73C199.578 545.763 198.905 546.498 199.908 544.814C199.416 543.776 199.215 543.093 197.897 542.809C191.542 541.439 162.022 533.811 160.393 528.352C170.521 530.416 180.777 525.877 192.413 530.265C199.886 533.082 213.445 531.986 221.8 533.553C228.576 534.824 245.265 539.175 247.163 529.654C249.21 531.055 251.185 532.402 253.175 533.893C233.493 541.122 218.852 545.148 197.462 546.73Z"/><path fill="#017ABA" d="M61.8234 458.839C64.1493 460.627 67.0754 466.28 69.4852 469.367C67.5713 469.085 67.1743 468.07 65.8554 466.382C64.7847 467.063 65.0632 467.27 64.6235 468.923C63.5245 465.468 62.713 462.359 61.8234 458.839Z"/><defs><linearGradient id="gradient_23" gradientUnits="userSpaceOnUse" x1="268.13553" y1="600.2052" x2="209.54091" y2="676.95209"><stop offset="0" stop-color="#051C48"/><stop offset="1" stop-color="#2D2B79"/></linearGradient></defs><path fill="url(#gradient_23)" d="M212.218 627.66C222.279 624.439 232.418 620.884 242.459 617.55C255.297 613.288 266.611 608.682 280.196 607.395C279.72 625.358 279.629 640.451 293.913 653.384C263.072 668.356 231.332 673.354 198.218 661.967C191.616 659.697 169.779 649.855 166.051 644.685C166.666 644.09 166.333 644.207 166.958 644.137C182.147 638.931 197.237 633.438 212.218 627.66Z"/><defs><linearGradient id="gradient_24" gradientUnits="userSpaceOnUse" x1="230.01138" y1="612.84955" x2="208.48862" y2="661.15045"><stop offset="0" stop-color="#102471"/><stop offset="1" stop-color="#403EB0"/></linearGradient></defs><path fill="url(#gradient_24)" d="M212.218 627.66C222.61 631.16 259.87 633.165 270.216 629.183L270.415 629.659C253.285 652.761 199.5 654.895 175.219 646.143C172.844 645.287 169.041 645.125 166.958 644.137C182.147 638.931 197.237 633.438 212.218 627.66Z"/><defs><linearGradient id="gradient_25" gradientUnits="userSpaceOnUse" x1="755.45221" y1="599.86603" x2="812.69098" y2="676.93665"><stop offset="0" stop-color="#041E4A"/><stop offset="1" stop-color="#292A77"/></linearGradient></defs><path fill="url(#gradient_25)" d="M743.966 607.146C766.691 612.226 788.988 619.062 810.655 627.592C814.838 628.839 855.905 643.362 857.372 644.564L857.457 644.863C851.417 651.159 833.399 659.326 824.998 662.155C791.785 673.341 761.096 668.147 730.515 652.746C745.112 638.693 744.033 626.043 743.966 607.146Z"/><defs><linearGradient id="gradient_26" gradientUnits="userSpaceOnUse" x1="791.41412" y1="610.84296" x2="819.69659" y2="663.86469"><stop offset="0" stop-color="#102675"/><stop offset="1" stop-color="#3B3DB0"/></linearGradient></defs><path fill="url(#gradient_26)" d="M810.655 627.592C814.838 628.839 855.905 643.362 857.372 644.564L857.457 644.863C852.25 645.233 846.819 647.147 841.657 648.154C806.644 654.987 779.958 651.953 752.73 628.783C764.347 631.52 775.644 631.285 787.51 631.038C795.4 630.875 802.908 628.941 810.655 627.592Z"/><defs><linearGradient id="gradient_27" gradientUnits="userSpaceOnUse" x1="188.40012" y1="535.99219" x2="79.535774" y2="442.49329"><stop offset="0" stop-color="#0082D0"/><stop offset="1" stop-color="#00C7F1" stop-opacity="0.98823529"/></linearGradient></defs><path fill="url(#gradient_27)" d="M61.8234 458.839L61.6363 457.77C63.1493 457.778 70.3872 462.123 72.6473 463.168C79.0186 466.071 85.6029 468.482 92.3426 470.379C108.356 474.817 124.617 478.305 141.042 480.824C147.264 481.832 161.276 483.566 166.406 484.838C174.624 498.272 193.829 510.052 208.16 515.827C197.132 517.234 185.706 517.318 174.396 517.007C142.5 516.129 110.868 504.152 85.488 484.979C81.1813 481.725 73.3652 473.555 69.4852 469.367C67.0754 466.28 64.1493 460.627 61.8234 458.839Z"/><defs><linearGradient id="gradient_28" gradientUnits="userSpaceOnUse" x1="852.0249" y1="539.20782" x2="925.09662" y2="435.87811"><stop offset="0" stop-color="#0083CF"/><stop offset="1" stop-color="#00C5F0" stop-opacity="0.98823529"/></linearGradient></defs><path fill="url(#gradient_28)" d="M960.52 457.753C960.858 460.436 956.266 466.347 954.54 468.509C922.63 508.476 865.743 523.016 816.881 515.933L817.354 515.675C821.263 513.579 825.959 511.834 829.682 509.706C838.046 504.925 855.154 493.627 858.972 484.356C891.85 479.628 931.588 475.276 960.52 457.753Z"/><path fill="#072345" d="M678.852 667.384C695.589 668.152 704.755 669.482 720.096 662.548C724.715 666.071 728.961 670.983 732.872 675.322C742.719 685.849 753.276 698.035 763.498 707.896L763.938 708.223L763.828 709.18C761.487 711.395 754.555 713.378 751.366 714.33C720.103 723.663 687.01 697.865 678.852 667.384Z"/><defs><linearGradient id="gradient_29" gradientUnits="userSpaceOnUse" x1="716.37744" y1="666.07764" x2="729.62256" y2="715.42236"><stop offset="0" stop-color="#13205E"/><stop offset="1" stop-color="#3F2C80"/></linearGradient></defs><path fill="url(#gradient_29)" d="M683.38 673.175C692.035 678.022 692.583 680.268 703.634 681.696C711.954 682.772 726.502 680.475 732.872 675.322C742.719 685.849 753.276 698.035 763.498 707.896C760.712 708.824 753.996 708.655 751.004 708.399C721.709 705.894 702.279 694.884 683.38 673.175Z"/><path fill="#072345" d="M292.308 674.536C295.229 671.518 299.185 667.111 302.686 664.475C304.914 662.798 310.8 666.402 313.53 666.931C317.009 667.606 321.108 667.862 324.708 667.846C329.463 668.329 342.025 666.363 345.084 668.509C345.962 671.553 342.068 678.224 340.468 681.09C331.58 697.013 316.048 709.022 298.878 714.612C290.593 717.31 263.46 716.357 259.907 708.266C272.886 696.219 280.312 687.633 292.308 674.536Z"/><defs><linearGradient id="gradient_30" gradientUnits="userSpaceOnUse" x1="309.62091" y1="664.28125" x2="290.37909" y2="717.71875"><stop offset="0" stop-color="#131E59"/><stop offset="1" stop-color="#412D7F"/></linearGradient></defs><path fill="url(#gradient_30)" d="M292.308 674.536C304.366 680.368 314.574 683.577 328.292 679.827C332.381 678.709 337.687 674.599 341.066 671.939C324.156 698.15 290.173 710.395 259.907 708.266C272.886 696.219 280.312 687.633 292.308 674.536Z"/><defs><linearGradient id="gradient_31" gradientUnits="userSpaceOnUse" x1="648.4881" y1="665.60559" x2="653.35162" y2="725.90729"><stop offset="0" stop-color="#051B3E"/><stop offset="1" stop-color="#1A2574"/></linearGradient></defs><path fill="url(#gradient_31)" d="M623.984 667.022C632.813 666.937 644.017 666.389 652.681 667.352C656.042 667.726 661.604 683.234 663.052 686.455C665.962 692.926 669.256 700.001 671.955 706.605C674.347 712.611 675.711 719.037 678.413 724.932L678.704 725.556C647.088 718.256 630.789 697.818 623.984 667.022Z"/><path fill="#062D6E" d="M369.284 667.15L399.276 667.075C398.258 671.521 394.155 685.861 391.355 689.5C383.739 706.108 365.788 722.505 347.358 725.45C352.64 712.527 355.139 703.334 361.425 689.578C364.878 681.208 367.164 676.018 369.284 667.15Z"/><path fill="#072345" d="M369.284 667.15L399.276 667.075C398.258 671.521 394.155 685.861 391.355 689.5C390.792 688.671 391.145 689.041 390.018 688.628C380.052 691.592 371.502 691.29 361.425 689.578C364.878 681.208 367.164 676.018 369.284 667.15Z"/><path fill="#004785" d="M419.055 674.309C420.378 675.616 421.417 679.008 422.082 680.856C430.993 705.608 422.273 728.048 399.92 741.494L394.389 744.082C394.487 735.977 395.765 723.806 396.397 715.436C407.132 703.35 416.221 690.66 419.055 674.309Z"/><path fill="#004785" d="M604.679 674.863C605.139 675.306 606.82 682.514 607.241 683.814C611.222 696.106 619.566 706 627.906 715.55C628.645 725.01 629.478 734.463 630.405 743.907C629.088 743.458 627.519 742.778 626.202 742.247C614.956 736.292 606.563 727.7 601.918 715.768C596.18 701.027 598.64 688.88 604.679 674.863Z"/><defs><linearGradient id="gradient_32" gradientUnits="userSpaceOnUse" x1="758.6214" y1="881.52094" x2="204.96722" y2="495.69946"><stop offset="0" stop-color="#F48309"/><stop offset="1" stop-color="#FFC80A"/></linearGradient></defs><path fill="url(#gradient_32)" d="M76.714 586.794C84.0205 594.97 90.7236 600.909 99.2279 607.747C105.128 612.379 111.125 616.886 117.214 621.266C120.065 623.313 125.772 626.976 128.167 629.099C127.612 631.578 118.288 633.906 115.508 636.34L116.215 637.073C120.495 641.564 124.44 647.636 129.073 652.317C139.018 662.368 151.195 671.414 163.589 678.235C168.782 681.093 174.796 683.432 180.071 686.145C188.835 689.379 200.338 692.64 208.228 695.771L208.569 696.211C212.741 701.706 216.444 708.976 220.479 714.677C228.204 725.591 236.585 736.72 245.36 746.812C302.05 810.967 379.765 852.795 464.536 864.776C556.708 877.661 650.221 853.373 724.472 797.262C751.703 776.76 775.832 752.436 796.115 725.042C800.334 719.296 804.361 713.412 808.191 707.399C810.159 704.341 813.54 698.673 815.63 695.959C824.379 693.59 832.399 691.261 840.919 688.117C863.353 679.186 879.296 669.022 896.413 651.677C901.176 646.852 904.996 641.388 909.687 636.471L895.465 629.779C905.533 621.702 916.898 613.737 927.368 605.443C933.5 599.27 939.587 594.421 945.973 587.697C923.104 705.845 854.407 810.141 754.888 877.801C660.106 942.913 543.153 967.25 430.265 945.352C316.095 923.404 213.288 852.073 148.505 756.149C122.171 717.151 101.707 674.497 87.7685 629.552C85.2319 621.041 82.9144 612.466 80.8182 603.836C79.5727 598.647 78.2062 591.764 76.714 586.794Z"/><defs><linearGradient id="gradient_33" gradientUnits="userSpaceOnUse" x1="956.0036" y1="674.52679" x2="110.45436" y2="801.86414"><stop offset="0" stop-color="#A93D10"/><stop offset="1" stop-color="#DF6E0B"/></linearGradient></defs><path fill="url(#gradient_33)" d="M76.714 586.794C84.0205 594.97 90.7236 600.909 99.2279 607.747C105.128 612.379 111.125 616.886 117.214 621.266C120.065 623.313 125.772 626.976 128.167 629.099C127.612 631.578 118.288 633.906 115.508 636.34L114.747 636.323C110.865 636.219 110.661 635.147 106.861 637.482L106.036 639.051C115.983 666.961 126.102 690.67 140.662 716.681C184.206 794.881 250.754 857.791 331.276 896.874C397.154 928.156 462.291 941.585 535.252 937.5C546.995 937.853 567.557 934.559 579.383 932.641C666.644 917.864 747.192 876.44 809.969 814.055C859.136 764.421 896.297 704.198 918.61 637.994C920.494 632.326 927.36 610.746 927.368 605.443C933.5 599.27 939.587 594.421 945.973 587.697C923.104 705.845 854.407 810.141 754.888 877.801C660.106 942.913 543.153 967.25 430.265 945.352C316.095 923.404 213.288 852.073 148.505 756.149C122.171 717.151 101.707 674.497 87.7685 629.552C85.2319 621.041 82.9144 612.466 80.8182 603.836C79.5727 598.647 78.2062 591.764 76.714 586.794Z"/><path fill="#F17804" d="M99.2279 607.747C105.128 612.379 111.125 616.886 117.214 621.266C120.065 623.313 125.772 626.976 128.167 629.099C127.612 631.578 118.288 633.906 115.508 636.34L114.747 636.323C110.865 636.219 110.661 635.147 106.861 637.482L106.036 639.051C104.376 635.756 100.177 618.729 98.7136 614.244C97.6699 611.044 97.7419 610.148 99.2279 607.747Z"/><defs><linearGradient id="gradient_34" gradientUnits="userSpaceOnUse" x1="528.0202" y1="617.22565" x2="466.29681" y2="883.23425"><stop offset="0" stop-color="#D35B0C"/><stop offset="1" stop-color="#F08B09"/></linearGradient></defs><path fill="url(#gradient_34)" d="M180.071 686.145C188.835 689.379 200.338 692.64 208.228 695.771L208.569 696.211C212.741 701.706 216.444 708.976 220.479 714.677C228.204 725.591 236.585 736.72 245.36 746.812C302.05 810.967 379.765 852.795 464.536 864.776C556.708 877.661 650.221 853.373 724.472 797.262C751.703 776.76 775.832 752.436 796.115 725.042C800.334 719.296 804.361 713.412 808.191 707.399C810.159 704.341 813.54 698.673 815.63 695.959C824.379 693.59 832.399 691.261 840.919 688.117C840.754 692.318 833.814 701.57 831.39 705.669C806.732 743.783 776.111 777.688 740.697 806.087C664.395 866.242 567.43 893.84 470.887 882.882C373.148 871.114 283.765 821.95 221.493 745.704C210.442 732.285 200.165 718.249 190.711 703.661C187.425 698.659 183.604 690.327 180.071 686.145Z"/><path fill="#D55C09" d="M927.368 605.443C927.36 610.746 920.494 632.326 918.61 637.994C896.297 704.198 859.136 764.421 809.969 814.055C747.192 876.44 666.644 917.864 579.383 932.641C567.557 934.559 546.995 937.853 535.252 937.5C539.705 935.237 559.208 935.566 565.565 933.558C564.964 932.537 564.956 932.622 565.007 931.446C566.504 929.801 567.117 929.332 567.974 927.34L567.57 926.432L565.827 925.991C568.251 925.034 571.103 924.659 573.679 924.252C599.518 920.244 625.055 913.334 649.588 904.346C664.439 898.905 677.572 893.526 691.572 886.252C709.14 877.125 726.346 868.781 742.37 857.038C742.548 856.964 742.726 856.889 742.903 856.814C747.24 854.946 756.006 848.391 759.908 845.345C789.973 821.885 826.912 787.116 847.473 755.12C848.437 753.019 852.079 748.78 853.525 746.692C868.887 724.492 882.555 701.708 892.991 676.733C895.013 671.892 898.916 665.786 900.444 661.157L899.927 660.457C898.868 660.635 894.615 666.202 893.253 667.631C879.465 682.099 862.593 693.762 844.179 701.542C840.42 703.131 835.487 705.786 831.39 705.669C833.814 701.57 840.754 692.318 840.919 688.117C863.353 679.186 879.296 669.022 896.413 651.677C901.176 646.852 904.996 641.388 909.687 636.471L895.465 629.779C905.533 621.702 916.898 613.737 927.368 605.443Z"/><path fill="#F17804" d="M742.903 856.814C744.932 855.266 748.798 847.842 749.512 847.504C755.935 844.475 758.419 839.438 763.285 834.882L764.19 834.657C764.578 834.56 764.966 834.463 765.354 834.366C768.892 833.891 778.334 824.346 780.966 821.652C783.388 819.174 786.989 812.603 789.931 809.709C796.513 803.235 801.464 799.124 807.745 792.323C815.442 783.989 819.952 776.318 827.468 768.292C831.986 763.467 838.301 760.639 843.393 756.63C845.754 754.771 844.21 755.165 847.473 755.12C826.912 787.116 789.973 821.885 759.908 845.345C756.006 848.391 747.24 854.946 742.903 856.814Z"/><defs><linearGradient id="gradient_35" gradientUnits="userSpaceOnUse" x1="529.52448" y1="343.25732" x2="481.3775" y2="74.971634"><stop offset="0" stop-color="#FFA800"/><stop offset="1" stop-color="#FFD720"/></linearGradient></defs><path fill="url(#gradient_35)" d="M157.13 237.001C160.605 231.223 166.567 224.354 170.881 219.101C265.223 104.207 411.309 44.0033 559.389 60.8633C660.458 71.6057 754.705 116.954 826.169 189.225C840.823 203.984 854.419 220.56 867.35 236.8C865.655 240.38 864.494 242.212 862.312 245.56C851.35 262.678 838.367 278.413 823.642 292.427C818.267 297.48 813.797 301.595 808.142 306.404C782.263 264.522 742.283 226.872 700.866 200.589C619.565 148.997 523.484 134.596 429.816 155.985C341.737 176.294 265.105 230.269 216.316 306.361C211.264 302.551 204.85 296.507 200.268 292.122C186.839 280.597 172.314 262.091 162.734 247.165C160.629 243.632 159.002 240.665 157.13 237.001Z"/><path fill="#D55C09" d="M200.268 292.122C213.538 274.754 220.77 263.943 235.984 247.368C295.46 181.9 376.249 139.675 463.955 128.218C559.907 115.433 657.034 140.966 734.293 199.288C758.659 217.896 780.826 239.219 800.367 262.843C805.264 268.597 809.968 274.513 814.471 280.581C816.364 283.096 821.681 290.563 823.642 292.427C818.267 297.48 813.797 301.595 808.142 306.404C782.263 264.522 742.283 226.872 700.866 200.589C619.565 148.997 523.484 134.596 429.816 155.985C341.737 176.294 265.105 230.269 216.316 306.361C211.264 302.551 204.85 296.507 200.268 292.122Z"/><path fill="#FEB102" d="M157.13 237.001C160.605 231.223 166.567 224.354 170.881 219.101C265.223 104.207 411.309 44.0033 559.389 60.8633C660.458 71.6057 754.705 116.954 826.169 189.225C840.823 203.984 854.419 220.56 867.35 236.8C865.655 240.38 864.494 242.212 862.312 245.56L859.057 242.147C854.487 241.119 852.872 234.857 849.993 231.496C848.52 229.777 847.032 228.003 845.588 226.262C832.218 209.859 817.635 194.484 801.961 180.267C799.127 177.676 791.346 170.677 788.255 168.792C701.116 95.4057 588.364 59.6934 474.865 69.5305C391.725 76.4395 312.448 107.626 246.885 159.215C236.349 167.497 221.081 180.123 211.743 189.747C208.674 191.904 202.665 198.484 200.043 201.314C192.288 209.58 184.867 218.155 177.8 227.017C172.503 233.764 167.846 240.501 162.734 247.165C160.629 243.632 159.002 240.665 157.13 237.001Z"/><path fill="#FEEA62" d="M211.743 189.747C221.081 180.123 236.349 167.497 246.885 159.215C312.448 107.626 391.725 76.4395 474.865 69.5305C588.364 59.6934 701.116 95.4057 788.255 168.792L787.431 169.006C782.913 165.271 752.155 140.454 747.902 140.316C747.558 141.032 747.439 141.945 747.941 142.495C750.867 145.703 747.792 148.082 750.638 149.618C759.818 154.576 767.672 162.491 776.147 168.258L776.221 168.901C685.265 97.9193 574.55 64.9547 459.557 79.175C408.355 85.6238 358.74 101.272 313.104 125.366C295.779 134.689 276.986 147.042 261.123 158.486C251.485 165.56 242.151 173.038 233.144 180.9C230.788 182.983 220.453 192.939 218.86 193.929C219.125 192.181 224.003 188.353 225.405 187.247C226.83 186.122 226.974 184.452 228.764 183.035L228.653 181.675L227.919 181.304L227.228 181.874C226.34 182.596 226.207 182.66 225.107 183.093C217.887 180.436 217.799 186.755 212.38 190.064L211.743 189.747Z"/><path fill="#1A1A1A" fill-opacity="0.023529412" d="M830.927 293.332C832.16 292.833 831.527 292.915 832.824 293.07L832.89 294.341L830.323 294.004L830.805 293.313L829.987 293.805L830.927 293.332Z"/></svg>